/* XPM */
static char *_7542795a7d54549fef9a7bc4be929dbWa35eTQwIIf5MFEQ[] = {
/* columns rows colors chars-per-pixel */
"16 16 38 1 ",
"  c None",
". c #0991CF",
"X c #0791D0",
"o c #0792D1",
"O c #0891D0",
"+ c #0991D0",
"@ c #0990D1",
"# c #0892D0",
"$ c #0993D0",
"% c #0992D1",
"& c #1899D3",
"* c #279FD6",
"= c #36A6D9",
"- c #37A6D9",
"; c #45ADDB",
": c #45ADDC",
"> c #46ADDC",
", c #54B4DE",
"< c #55B4DF",
"1 c #56B4DF",
"2 c #64BAE1",
"3 c #64BBE1",
"4 c #74C1E4",
"5 c #83C8E7",
"6 c #93CFEA",
"7 c #93CFEB",
"8 c #A2D5ED",
"9 c #A2D6ED",
"0 c #B1DDF0",
"q c #B2DDF0",
"w c #C1E3F3",
"e c #C1E4F3",
"r c #D0EAF6",
"t c #D1EBF6",
"y c #E0F1F9",
"u c #E0F2F9",
"i c #EFF8FC",
"p c white",
/* pixels */
"     $$X$$X     ",
"   .X$X$$X$XX   ",
"  $$$X$XXX$XX$  ",
" .$<w*X79$-w>%X ",
" $X-p,$ii$,p-oo ",
"$X$>p4&pp&5p-X%%",
"$X$9p9>pp-0i0#$#",
"X$X*qr<yu2t9&###",
"$X$epi5pp7ipw###",
"X$XX>pr57rp;####",
"$$X$&pp,2pp#X$##",
" X$X$yp--pr#$X$ ",
" $$X$5wX&w5XXX@ ",
"  $$X$X$$X$$$$  ",
"   $$XX$X$$X$   ",
"     $$X$X$     "
};
