/* XPM */
static char *_614770851295[] = {
/* columns rows colors chars-per-pixel */
"32 32 42 1 ",
"  c #0991CF",
". c #0791D0",
"X c #0792D0",
"o c #0792D1",
"O c #0891D0",
"+ c #0991D0",
"@ c #0990D1",
"# c #0892D0",
"$ c #0993D0",
"% c #0992D1",
"& c #0894D0",
"* c #1899D3",
"= c #279FD6",
"- c #27A0D6",
"; c #36A6D9",
": c #37A6D9",
"> c #45ADDB",
", c #45ADDC",
"< c #46ADDC",
"1 c #54B4DE",
"2 c #55B4DF",
"3 c #56B4DF",
"4 c #64BAE1",
"5 c #64BBE1",
"6 c #64BBE2",
"7 c #74C1E4",
"8 c #83C8E7",
"9 c #92CFEA",
"0 c #93CFEA",
"q c #A2D5ED",
"w c #A2D6ED",
"e c #B1DDF0",
"r c #B2DDF0",
"t c #C1E3F3",
"y c #C1E4F3",
"u c #D0EAF6",
"i c #D1EBF6",
"p c #E0F1F9",
"a c #E0F2F9",
"s c #EFF8FC",
"d c white",
"f c None",
/* pixels */
"ffffffffffff&&###o##ffffffffffff",
"fffffffff##############fffffffff",
"fffffff ################offfffff",
"ffffff####################ffffff",
"fffff######################fffff",
"ffff########################ffff",
"fff####0qq;###2qq2###,qq7####fff",
"ff ####ydd5###0ddq###8dde####off",
"ff#####0dd0###ydde###edd7#####ff",
"f######5dde###sddp###ydd>######f",
"f######-ddp##*dddd*##sdd*######f",
"f#####28ddd*#,dddd;#*dds82#####f",
"######qdddd;#2dddd5#,ddddq######",
"######5qpdd5#8dssd8#7ddiq5#####o",
"########5dd8#edtidq#0dd>#######o",
"######-,5ddq#idetdi#ydd2,=##### ",
" o& o qddddi#sddddsoiddddq &o &o",
"& oo o0ppdds-ddpsdd=ddspp0o  o X",
"&oo &o##o0dd5dd*=dd8dd8oX ooo&oX",
"o & o ## 5ddids# ddidd2  X &  o ",
"f o ####o;ddddt#opdddd-o####oo f",
"foo&#### *ddddq# rddds& #### &#f",
"f# o######iddd7#&0dddt o#######f",
"ff& ######qddd>#o5ddd0o ######ff",
"ff########7ddd;##;ddd2########ff",
"fff#######-qqq###*qqq=#######fff",
"ffff########################ffff",
"fffff######################fffff",
"ffffff######o o ##########ffffff",
"fffffff##### o o########@fffffff",
"fffffffff###&oo #######fffffffff",
"ffffffffffff# @#####ffffffffffff"
};
