/* XPM */
static char *_614770862855[] = {
/* columns rows colors chars-per-pixel */
"128 128 46 1 ",
"  c #0891CF",
". c #0991CF",
"X c #0791D0",
"o c #0792D0",
"O c #0793D0",
"+ c #0792D1",
"@ c #0891D0",
"# c #0991D0",
"$ c #0990D1",
"% c #0892D0",
"& c #0992D0",
"* c #0893D0",
"= c #0993D0",
"- c #0992D1",
"; c #0894D0",
": c #1899D3",
"> c #279FD6",
", c #27A0D6",
"< c #36A6D9",
"1 c #37A6D9",
"2 c #45ADDB",
"3 c #45ADDC",
"4 c #46ADDC",
"5 c #54B4DE",
"6 c #55B4DE",
"7 c #55B4DF",
"8 c #64BAE1",
"9 c #64BBE1",
"0 c #64BBE2",
"q c #74C1E4",
"w c #83C8E7",
"e c #84C9E8",
"r c #93CFEA",
"t c #A2D5ED",
"y c #A2D6ED",
"u c #B1DDF0",
"i c #B2DDF0",
"p c #C1E3F3",
"a c #C1E4F3",
"s c #D0EAF6",
"d c #D1EBF6",
"f c #E0F1F9",
"g c #E0F2F9",
"h c #EFF8FC",
"j c white",
"k c None",
/* pixels */
"kkkkkkkkkkkkkkkkkkkkkkkkkkkkkkkkkkkkkkkkkkkkkkkkkkkkkkkk%;;%%%%%%%%%%;%%kkkkkkkkkkkkkkkkkkkkkkkkkkkkkkkkkkkkkkkkkkkkkkkkkkkkkkkk",
"kkkkkkkkkkkkkkkkkkkkkkkkkkkkkkkkkkkkkkkkkkkkkkkkkk%%%%%%%%%%%%%%%%%%%%%%%%%%;%kkkkkkkkkkkkkkkkkkkkkkkkkkkkkkkkkkkkkkkkkkkkkkkkkk",
"kkkkkkkkkkkkkkkkkkkkkkkkkkkkkkkkkkkkkkkkkkkkkk%%%%%%%%%%%%%%%%%%%%%%%%%%%%%%%%%%;%kkkkkkkkkkkkkkkkkkkkkkkkkkkkkkkkkkkkkkkkkkkkkk",
"kkkkkkkkkkkkkkkkkkkkkkkkkkkkkkkkkkkkkkkkkkk;%%%%%%%%%%%%%%%%%%%%%%%%%%%%%%%%%%%%%%%o%kkkkkkkkkkkkkkkkkkkkkkkkkkkkkkkkkkkkkkkkkkk",
"kkkkkkkkkkkkkkkkkkkkkkkkkkkkkkkkkkkkkkkk%o%%%%%%%%%%%%%%%%%%%%%%%%%%%%%%%%%%%%%%%%%%%%%%kkkkkkkkkkkkkkkkkkkkkkkkkkkkkkkkkkkkkkkk",
"kkkkkkkkkkkkkkkkkkkkkkkkkkkkkkkkkkkkkk%%%%%%%%%%%%%%%%%%%%%%%%%%%%%%%%%%%%%%%%%%%%%%%%%%%%kkkkkkkkkkkkkkkkkkkkkkkkkkkkkkkkkkkkkk",
"kkkkkkkkkkkkkkkkkkkkkkkkkkkkkkkkkkkk;%%%%%%%%%%%%%%%%%%%%%%%%%%%%%%%%%%%%%%%%%%%%%%%%%%%%%%%kkkkkkkkkkkkkkkkkkkkkkkkkkkkkkkkkkkk",
"kkkkkkkkkkkkkkkkkkkkkkkkkkkkkkkkkk%%%%%%%%%%%%%%%%%%%%%%%%%%%%%%%%%%%%%%%%%%%%%%%%%%%%%%%%%%%%kkkkkkkkkkkkkkkkkkkkkkkkkkkkkkkkkk",
"kkkkkkkkkkkkkkkkkkkkkkkkkkkkkkkk;%%%%%%%%%%%%%%%%%%%%%%%%%%%%%%%%%%%%%%%%%%%%%%%%%%%%%%%%%%%%%%okkkkkkkkkkkkkkkkkkkkkkkkkkkkkkkk",
"kkkkkkkkkkkkkkkkkkkkkkkkkkkkkk.%%%%%%%%%%%%%%%%%%%%%%%%%%%%%%%%%%%%%%%%%%%%%%%%%%%%%%%%%%%%%%%%%%%kkkkkkkkkkkkkkkkkkkkkkkkkkkkkk",
"kkkkkkkkkkkkkkkkkkkkkkkkkkkkk%o%%%%%%%%%%%%%%%%%%%%%%%%%%%%%%%%%%%%%%%%%%%%%%%%%%%%%%%%%%%%%%%%%%%%kkkkkkkkkkkkkkkkkkkkkkkkkkkkk",
"kkkkkkkkkkkkkkkkkkkkkkkkkkk.%%%%%%%%%%%%%%%%%%%%%%%%%%%%%%%%%%%%%%%%%%%%%%%%%%%%%%%%%%%%%%%%%%%%%%%%okkkkkkkkkkkkkkkkkkkkkkkkkkk",
"kkkkkkkkkkkkkkkkkkkkkkkkkk%%%%%%%%%%%%%%%%%%%%%%%%%%%%%%%%%%%%%%%%%%%%%%%%%%%%%%%%%%%%%%%%%%%%%%%%%%%%kkkkkkkkkkkkkkkkkkkkkkkkkk",
"kkkkkkkkkkkkkkkkkkkkkkkkko%%%%%%%%%%%%%%%%%%%%%%%%%%%%%%%%%%%%%%%%%%%%%%%%%%%%%%%%%%%%%%%%%%%%%%%%%%%%%kkkkkkkkkkkkkkkkkkkkkkkkk",
"kkkkkkkkkkkkkkkkkkkkkkk.%%%%%%%%%%%%%%%%%%%%%%%%%%%%%%%%%%%%%%%%%%%%%%%%%%%%%%%%%%%%%%%%%%%%%%%%%%%%%%%%%kkkkkkkkkkkkkkkkkkkkkkk",
"kkkkkkkkkkkkkkkkkkkkkko%%%%%%%%%%%%%%%%%%%%%%%%%%%%%%%%%%%%%%%%%%%%%%%%%%%%%%%%%%%%%%%%%%%%%%%%%%%%%%%%%%okkkkkkkkkkkkkkkkkkkkkk",
"kkkkkkkkkkkkkkkkkkkkk%%%%%%%%%%%%%%%%%%%%%%%%%%%%%%%%%%%%%%%%%%%%%%%%%%%%%%%%%%%%%%%%%%%%%%%%%%%%%%%%%%%%%%kkkkkkkkkkkkkkkkkkkkk",
"kkkkkkkkkkkkkkkkkkkk%%%%%%%%%%%%%%%%%%%%%%%%%%%%%%%%%%%%%%%%%%%%%%%%%%%%%%%%%%%%%%%%%%%%%%%%%%%%%%%%%%%%%%%%kkkkkkkkkkkkkkkkkkkk",
"kkkkkkkkkkkkkkkkkkk%%%%%%%%%%%%%%%%%%%%%%%%%%%%%%%%%%%%%%%%%%%%%%%%%%%%%%%%%%%%%%%%%%%%%%%%%%%%%%%%%%%%%%%%%%kkkkkkkkkkkkkkkkkkk",
"kkkkkkkkkkkkkkkkkk%%%%%%%%%%%%%%%%%%%%%%%%%%%%%%%%%%%%%%%%%%%%%%%%%%%%%%%%%%%%%%%%%%%%%%%%%%%%%%%%%%%%%%%%%%%%kkkkkkkkkkkkkkkkkk",
"kkkkkkkkkkkkkkkkk%%%%%%%%%%%%%%%%%%%%%%%%%%%%%%%%%%%%%%%%%%%%%%%%%%%%%%%%%%%%%%%%%%%%%%%%%%%%%%%%%%%%%%%%%%%%%%kkkkkkkkkkkkkkkkk",
"kkkkkkkkkkkkkkkk%%%%%%%%%%%%%%%%%%%%%%%%%%%%%%%%%%%%%%%%%%%%%%%%%%%%%%%%%%%%%%%%%%%%%%%%%%%%%%%%%%%%%%%%%%%%%%%%kkkkkkkkkkkkkkkk",
"kkkkkkkkkkkkkkko%%%%%%%%%%%%%%%%%%%%%%%%%%%%%%%%%%%%%%%%%%%%%%%%%%%%%%%%%%%%%%%%%%%%%%%%%%%%%%%%%%%%%%%%%%%%%%%%okkkkkkkkkkkkkkk",
"kkkkkkkkkkkkkk.%%%%%%%%%%%%%%%%%%%%%%%%%%%%%%%%%%%%%%%%%%%%%%%%%%%%%%%%%%%%%%%%%%%%%%%%%%%%%%%%%%%%%%%%%%%%%%%%%%okkkkkkkkkkkkkk",
"kkkkkkkkkkkkkk%%%%%%%%%%%%%%%%%%o%%%%%%%%%%%%%%%%%%%%%%%%%%%%%%%%%%%%%%%%%%%%%%%%%%%%%%%%%%%%%%%%%o%%%%%%%%%%%%%%%kkkkkkkkkkkkkk",
"kkkkkkkkkkkkko%%%%%%%%%%%%%%1000880000087%%%%%%%%%%%%%%%%%480008000084%%%%%%%%%%%%%%%%:800000800088>%%%%%%%%%%%%%%okkkkkkkkkkkkk",
"kkkkkkkkkkkk%%%%%%%%%%%%%%%%yjjjjjjjjjjjj:%%%%%%%%%%%%%%%%sjjjjjjjjjjg%%%%%%%%%%%%%%%%qjjjjjjjjjjjj5%%%%%%%%%%%%%%%%kkkkkkkkkkkk",
"kkkkkkkkkkk.%%%%%%%%%%%%%%%%qjjjjjjjjjjjj1%%%%%%%%%%%%%%%%jjjjjjjjjjjh%%%%%%%%%%%%%%%%rjjjjjjjjjjjj1%%%%%%%%%%%%%%%%okkkkkkkkkkk",
"kkkkkkkkkkk%%%%%%%%%%%%%%%%%4jjjjjjjjjjjj8o%%%%%%%%%%%%%%1jjjjjjjjjjjj>%%%%%%%%%%%%%%%ajjjjjjjjjjjh%%%%%%%%%%%%%%%%%%kkkkkkkkkkk",
"kkkkkkkkkk%%%%%%%%%%%%%%%%%%:jjjjjjjjjjjjr%%%%%%%%%%%%%%%7jjjjjjjjjjjj5%%%%%%%%%%%%%%%sjjjjjjjjjjja%%%%%%%%%%%%%%%%%%%kkkkkkkkkk",
"kkkkkkkkk.%%%%%%%%%%%%%%%%%%%gjjjjjjjjjjji%%%%%%%%%%%%%%%wjjjjjjjjjjjjq%%%%%%%%%%%%%%%jjjjjjjjjjjjro%%%%%%%%%%%%%%%%%%kkkkkkkkkk",
"kkkkkkkkk%%%%%%%%%%%%%%%%%%%%ijjjjjjjjjjjg%%%%%%%%%%%%%%%ijjjjjjjjjjjjy%%%%%%%%%%%%%%1jjjjjjjjjjjj7%%%%%%%%%%%%%%%%%%%%kkkkkkkkk",
"kkkkkkkkO%%%%%%%%%%%%%%%%%%%%qjjjjjjjjjjjj%%%%%%%%%%%%%%%ajjjjjjjjjjjji%%%%%%%%%%%%%%5jjjjjjjjjjjj1o%%%%%%%%%%%%%%%%%%%%kkkkkkkk",
"kkkkkkkk%%%%%%%%%%%%%%%%%%%%%7jjjjjjjjjjjj,o%%%%%%%%%%%%%hjjjjjjjjjjjjfo%%%%%%%%%%%%%wjjjjjjjjjjjh%%%%%%%%%%%%%%%%%%%%%%kkkkkkkk",
"kkkkkkk%%%%%%%%%%%%%%%%%%%%%%,jjjjjjjjjjjj7.%%%%%%%%%%%%:jjjjjjjjjjjjjj:%%%%%%%%%%%%%ijjjjjjjjjjjp%%%%%%%%%%%%%%%%%%%%%%%kkkkkkk",
"kkkkkkk%%%%%%%%%%%%%%%%%%%%%%%hjjjjjjjjjjjqo%%%%%%%%%%%%4jjjjjjjjjjjjjj1%%%%%%%%%%%%%pjjjjjjjjjjjr%%%%%%%%%%%%%%%%%%%%%%%kkkkkkk",
"kkkkkk%%%%%%%%%%%%%%%%%%%%%%%%ijjjjjjjjjjjy%%%%%%%%%%%%%qjjjjjjjjjjjjjj8%%%%%%%%%%%%%hjjjjjjjjjjj8%%%%%%%%%%%%%%%%%%%%%%%%kkkkkk",
"kkkkkk%%%%%%%%%%%%%%%%%%%%%%%%rjjjjjjjjjjjs%%%%%%%%%%%%%rjjjjjjjjjjjjjjw%%%%%%%%%%%%:jjjjjjjjjjjj1%%%%%%%%%%%%%%%%%%%%%%%%kkkkkk",
"kkkkk%%%%%%%%%%%%%%%%%%%%%%%%%7jjjjjjjjjjjh%%%%%%%%%%%%%ijjjjjjjjjjjjjjy%%%%%%%%%%%%4jjjjjjjjjjjjo%%%%%%%%%%%%%%%%%%%%%%%%%kkkkk",
"kkkkk%%%%%%%%%%%%%%%%%%%%%%%%%,jjjjjjjjjjjj:%%%%%%%%%%%%sjjjjjjjjjjjjjjs%%%%%%%%%%%%8jjjjjjjjjjjp%%%%%%%%%%%%%%%%%%%%%%%%%%kkkkk",
"kkkk%%%%%%%%%%%%%%%%%%%%%%%%%%%hjjjjjjjjjjj4o%%%%%%%%%%%jjjjjjjjjjjjjjjh%%%%%%%%%%%%rjjjjjjjjjjjr%%%%%%%%%%%%%%%%%%%%%%%%%%kkkkk",
"kkkk%%%%%%%%%%%%%%%%%%%%%%%%%%%ajjjjjjjjjjj8o%%%%%%%%%%1jjjjjjjjjjjjjjjj>%%%%%%%%%%%ijjjjjjjjjjj8%%%%%%%%%%%%%%%%%%%%%%%%%%okkkk",
"kkkk%%%%%%%%%%%%%%%%%%%%%%%%%%orjjjjjjjjjjjr%%%%%%%%%%%4jjjjjjjjjjjjjjjj5%%%%%%%%%%%sjjjjjjjjjjj1%%%%%%%%%%%%%%%%%%%%%%%%%%%kkkk",
"kkk%%%%%%%%%%%%%%%%%%%%%%%%%%%.0jjjjjjjjjjji%%%%%%%%%%%qjjjjjjjjjjjjjjjjq%%%%%%%%%%%jjjjjjjjjjjjo%%%%%%%%%%%%%%%%%%%%%%%%%%%%kkk",
"kkko%%%%%%%%%%%%%%%%%%%%%%%%%%%,jjjjjjjjjjjf%%%%%%%%%%%rjjjjjjjjjjjjjjjjro%%%%%%%%%1jjjjjjjjjjjp%%%%%%%%%%%%%%%%%%%%%%%%%%%%okkk",
"kkk%%%%%%%%%%%%%%%%%%%%%%%%%o.%%jjjjjjjjjjjj:%%%%%%%%%%ajjjjjjjjjjjjjjjji%%%%%%%%%%4jjjjjjjjjjjy%%%%%%%%%%%%%%%%%%%%%%%%%%%%%kkk",
"kk%%%%%%%%%%%%%%%%%%%%%%%4ggggggjjjjjjjjjjjj1%%%%%%%%%%hjjjjjjjjjjjjjjjjg%%%%%%%%%%qjjjjjjjjjjjjgggggs4%%%%%%%%%%%%%%%%%%%%%%%kk",
"kk;%%%%%%%%%%%%%%%%%%%%%%8jjjjjjjjjjjjjjjjjj8%%%%%%%%%:jjjjjjjjjjjjjjjjjj:%%%%%%%%%rjjjjjjjjjjjjjjjjjj8%%%%%%%%%%%%%%%%%%%%%%%kk",
"kk%%%%%%%%%%%%%%%%%%%%%%o0jjjjjjjjjjjjjjjjjjwo%%%%%%%%4jjjjjjjjjjjjjjjjjj1%%%%%%%%%ajjjjjjjjjjjjjjjjjj8%%%%%%%%%%%%%%%%%%%%%%%kk",
"kk%%%%%%%%%%%%%%%%%%%%%%.0jjjjjjjjjjjjjjjjjjy.%%%%%%%%7jjjjjjjjjjjjjjjjjj8%%%%%%%%%hjjjjjjjjjjjjjjjjjj8%%%%%%%%%%%%%%%%%%%%%%%kk",
"k%%%%%%%%%%%%%%%%%%%%%%%%8jjjjjjjjjjjjjjjjjjs%%%%%%%%%wjjjjjjjjjjjjjjjjjjwo%%%%%%%:jjjjjjjjjjjjjjjjjjj8%%%%%%%%%%%%%%%%%%%%%%%%k",
"k%%%%%%%%%%%%%%%%%%%%%%%%8jjjjjjjjjjjjjjjjjjho%%%%%%%%ijjjjjjjjjjjjjjjjjjyo%%%%%%%4jjjjjjjjjjjjjjjjjjj8%%%%%%%%%%%%%%%%%%%%%%%%k",
"k%%%%%%%%%%%%%%%%%%%%%%%%8jjjjjjjjjjjjjjjjjjj>%%%%%%%%sjjjjjjjjjjjjjjjjjjs%%%%%%%%7jjjjjjjjjjjjjjjjjjj8%%%%%%%%%%%%%%%%%%%%%%%%k",
"k%%%%%%%%%%%%%%%%%%%%%%%o8jjjjjjjjjjjjjjjjjjj7%%%%%%%%jjjjjjjjjjjjjjjjjjjh%%%%%%%%wjjjjjjjjjjjjjjjjjjj8%%%%%%%%%%%%%%%%%%%%%%%%k",
"k%%%%%%%%%%%%%%%%%%%%%%%%1ttyyyyyijjjjjjjjjjjq%%%%%%%,jjjjjjjjjhhjjjjjjjjj>%%%%%%%ijjjjjjjjjjhyyttttyy>%%%%%%%%%%%%%%%%%%%%%%%%k",
"k%%%%%%%%%%%%%%%%%%%%%%%%%%%%%%%oohjjjjjjjjjjr%%%%%%%4jjjjjjjjj2rjjjjjjjjj5%%%%%%%sjjjjjjjjjjio%%%%%%%%%%%%%%%%%%%%%%%%%%%%%%%%k",
"%%%%%%%%%%%%%%%%%%%%%%%%%%%%%%%%%%pjjjjjjjjjjio%%%%%%qjjjjjjjjj:qjjjjjjjjj0==-.-%%jjjjjjjjjjj0%%%%%%%%%%%%%%%%%%%%%%%%%%%%%%%%%%",
"%%%%%%%%%%%%%%%%%%%%%%%%%%%%%%%%%%rjjjjjjjjjjfo%%%%%%rjjjjjjjjh%4jjjjjjjjjr%--=.%1jjjjjjjjjjj2%%%%%%%%%%%%%%%%%%%%%%%%%%%%%%%%%%",
";%%%%%%%%%%%%%%%%%%%%%%%%%%%%%%%%%8jjjjjjjjjjj:%%%%%%ajjjjjjjjp%,jjjjjjjjju%%%-.%4jjjjjjjjjjj:%%%%%%%%%%%%%%%%%%%%%%%%%%%%%%%%%%",
"%%%%%%%%%%%%%%%%%%%%%%%%%%%%%%%%%%1jjjjjjjjjjj1%%%%%%sjjjjjjjjr%%hjjjjjjjjf%%%%;%qjjjjjjjjjjg%%%%%%%%%%%%%%%%%%%%%%%%%%%%%%%%%%%",
"%%%%%%%%%%%%%%%%%%%%%%%%%%%%%%%%%%%hjjjjjjjjjj8%%%%%%jjjjjjjjjq%%sjjjjjjjjj:%%%%%rjjjjjjjjjju%%%%%%%%%%%%%%%%%%%%%%%%%%%%%%%%%%%",
"%%%%%%%%%%%%%%%%%%%%%%%%%%%%%%%%%%%sjjjjjjjjjjr%%%%%1jjjjjjjjj2%%yjjjjjjjjj1%%%%%ajjjjjjjjjjw%%%%%%%%%%%%%%%%%%%%%%%%%%%%%%%%%%%",
"%%%%%%%%%%%%%%%%%%%%%%%%%%%%%%%%%%%ijjjjjjjjjji%%%%%7jjjjjjjjj>%%wjjjjjjjjj8%%%%%gjjjjjjjjjj5%%%%%%%%%%%%%%%%%%%%%%%%%%%%%%%%%%%",
"%%%%%%%%%%%%%%%%%%%%%%%%%4gggggggggjjjjjjjjjjjfo%%%%wjjjjjjjjjhgghjjjjjjjjjw%%%%:jjjjjjjjjjjhggggggggg3%%%%%%%%%%%%%%%%%%%%%%%%%",
"%%%%%%%%%%%%%%%%%%%%%%%%%8jjjjjjjjjjjjjjjjjjjjj%%%%%ujjjjjjjjjjjjjjjjjjjjjjyo%%%1jjjjjjjjjjjjjjjjjjjjj8%%%%%%%%%%%%%%%%%%%%%%%%%",
"%%%%%%%%%%%%%%%%%%%%%%%%%8jjjjjjjjjjjjjjjjjjjjj>%%%%pjjjjjjjjjjjjjjjjjjjjjjs%%%%7jjjjjjjjjjjjjjjjjjjjj8%%%%%%%%%%%%%%%%%%%%%%%%%",
"%%%%%%%%%%%%%%%%%%%%%%%%%8jjjjjjjjjjjjjjjjjjjjj7%%%%hjjjjjjjjjjjjjjjjjjjjjjh%%%%wjjjjjjjjjjjjjjjjjjjjj8%%%%%%%%%%%%%%%%%%%%%%%%%",
"%%%%%%%%%%%%%%%%%%%%%%%%%8jjjjjjjjjjjjjjjjjjjjj0%%%:jjjjjjjjjjjjjjjjjjjjjjjj>%%%ijjjjjjjjjjjjjjjjjjjjj8%%%%%%%%%%%%%%%%%%%%%%%%%",
"%%%%%%%%%%%%%%%%%%%%%%%%%0jjjjjjjjjjjjjjjjjjjjjy%%%4jjjjjjjjjjjjjjjjjjjjjjjj3%%%ajjjjjjjjjjjjjjjjjjjjj8%%%%%%%%%%%%%%%%%%%%%%%%X",
";%%%%%%%%%%%%%%%%%%%%%%%%0jjjjjjjjjjjjjjjjjjjjjs%%%qjjjjjjjjjjjjjjjjjjjjjjjj8%%%hjjjjjjjjjjjjjjjjjjjjj8%%%%%%%%%%%%%%%%%%%%%%%o$",
"%%%%%%%%%%%%%%%%%%%%%%%o.8jjjjjjjjjjjjjjjjjjjjjh%%%rjjjjjjjjjjjjjjjjjjjjjjjjr%%:jjjjjjjjjjjjjjjjjjjjjj8%%%%%%%%%%%%%%%%%%%%%%%.o",
"%%%%%%%%%%%%%%%%%%%%%%%.o>yyyyyyttyyyhjjjjjjjjjj:%%ijjjjjjjjfyyyyyijjjjjjjjju%%3jjjjjjjjjjsyyyyttttttt>%%%%%%%%%%%%%%%%%%%%%%%%%",
"k%%%%%%%%%%%%%%%%%%%%%%%%%%%%%%%%%%%%yjjjjjjjjjj1%%sjjjjjjjjro%%%%%djjjjjjjjf%%0jjjjjjjjjj7%%%%%%%%%%%%%%%%%%%%%%%%%%%%%%%%%%%%k",
"k%%%%%%%%%%%%%%%%%%%%%%%%%%%%%%%%%%%%0jjjjjjjjjj8%%jjjjjjjjjq%%%%%%yjjjjjjjjj:.tjjjjjjjjjj>%%%%%%%%%%%%%%%%%%%%%%%%%%%%%%%%%%%%k",
"k%%%%%%%%%%%%%%%%%%%%%%%%%%%%%%%%%%%%4jjjjjjjjjjr%1jjjjjjjjj2%%%%%%wjjjjjjjjj>%pjjjjjjjjjh%%%%%%%%%%%%%%%%%%%%%%%%%%%%%%%%%%%%%k",
"k%%%%%%%%%%%%%%%%%%%%%%%%%%%%%%%%%%%%:jjjjjjjjjjio4jjjjjjjjj1o%%%%o8jjjjjjjjj7%sjjjjjjjjjp%%%%%%%%%%%%%%%%%%%%%%%%%%%%%%%%%%%%ok",
"k;%%%%%%%%%%%%%%%%%%%%%%%%%%%%%%%%%%%%gjjjjjjjjjg%qjjjjjjjjj%%%%%%%1jjjjjjjjjq.jjjjjjjjjjwo.%%%%%%%%%%%%%%%%%%%%%%%%%%%%%%%%%%%k",
"k%%%%%%%%%%%%%%%%%%%%%%%%%%%%%%%%%%%%%ijjjjjjjjjj:rjjjjjjjjs%%%%%%%:jjjjjjjjju1jjjjjjjjjj5%o%%%%%%%%%%%%%%%%%%%%%%%%%%%%%%%%%%%k",
"kk%%%%%%%%%%%%%%%%%%%%%%%%%%%%%%%%%%%%qjjjjjjjjjjegjjjjjjjji%%%%%%%%fjjjjjjjjjhjjjjjjjjjj1%%%%%%%%%%%%%%%%%%%%%%%%%%%%%%%%%%%%kk",
"kk%%%%%%%%%%%%%%%%%%%%%%%%%%%%%%%%%%%%7jjjjjjjjjjjjjjjjjjjjw%%%%%%%%ijjjjjjjjjjjjjjjjjjjh%%%%%%%%%%%%%%%%%%%%%%%%%%%%%%%%%%%%%kk",
"kk%%%%%%%%%%%%%%%%%%%%%%%%%%%%%%%%%%%%:jjjjjjjjjjjjjjjjjjjj7%%%%%%%%rjjjjjjjjjjjjjjjjjjjp%%%%%%%%%%%%%%%%%%%%%%%%%%%%%%%%%%%%%kk",
"kk%%%%%%%%%%%%%%%%%%%%%%%%%%%%%%%%%%%%%gjjjjjjjjjjjjjjjjjjj1%%%%%%%%qjjjjjjjjjjjjjjjjjjjr%%%%%%%%%%%%%%%%%%%%%%%%%%%%%%%%%%%%%kk",
"kkk%%%%%%%%%%%%%%%%%%%%%%%%%%%%%%%%%%%%ijjjjjjjjjjjjjjjjjjjo%%%%%%%%7jjjjjjjjjjjjjjjjjjj5o%%%%%%%%%%%%%%%%%%%%%%%%%%%%%%%%%%%kkk",
"kkk%%%%%%%%%%%%%%%%%%%%%%%%%%%%%%%%%%%%qjjjjjjjjjjjjjjjjjjso%%%%%%%%,jjjjjjjjjjjjjjjjjjj1%%%%%%%%%%%%%%%%%%%%%%%%%%%%%%%%%%%okkk",
"kkk%%%%%%%%%%%%%%%%%%%%%%%%%%%%%%%%%%%%7jjjjjjjjjjjjjjjjjja%%%%%%%%%%hjjjjjjjjjjjjjjjjjh%%%%%%%%%%%%%%%%%%%%%%%%%%%%%%%%%%%%%kkk",
"kkkk%%%%%%%%%%%%%%%%%%%%%%%%%%%%%%%%%%%,jjjjjjjjjjjjjjjjjjr%%%%%%%%%%sjjjjjjjjjjjjjjjjjp%%%%%%%%%%%%%%%%%%%%%%%%%%%%%%%%%%%%kkkk",
"kkkk%%%%%%%%%%%%%%%%%%%%%%%%%%%%%%%%%%%%hjjjjjjjjjjjjjjjjj8o%%%%%%%%%yjjjjjjjjjjjjjjjjjr%%%%%%%%%%%%%%%%%%%%%%%%%%%%%%%%%%%%kkkk",
"kkkkk%%%%%%%%%%%%%%%%%%%%%%%%%%%%%%%%%%%ijjjjjjjjjjjjjjjjj2.%%%%%%%%%qjjjjjjjjjjjjjjjjj8%%%%%%%%%%%%%%%%%%%%%%%%%%%%%%%%%%%%kkkk",
"kkkkk%%%%%%%%%%%%%%%%%%%%%%%%%%%%%%%%%%%rjjjjjjjjjjjjjjjjj:%%%%%%%%%%8jjjjjjjjjjjjjjjjj1o%%%%%%%%%%%%%%%%%%%%%%%%%%%%%%%%%%kkkkk",
"kkkkk%%%%%%%%%%%%%%%%%%%%%%%%%%%%%%%%%%%7jjjjjjjjjjjjjjjjh%%%%%%%%%%%,jjjjjjjjjjjjjjjjj%%%%%%%%%%%%%%%%%%%%%%%%%%%%%%%%%%%%kkkkk",
"kkkkkk%%%%%%%%%%%%%%%%%%%%%%%%%%%%%%%%%%,jjjjjjjjjjjjjjjjp%%%%%%%%%%%:jjjjjjjjjjjjjjjjp%%%%%%%%%%%%%%%%%%%%%%%%%%%%%%%%%%%kkkkkk",
"kkkkkk%%%%%%%%%%%%%%%%%%%%%%%%%%%%%%%%%%%hjjjjjjjjjjjjjjjr%%%%%%%%%%%%gjjjjjjjjjjjjjjjy%%%%%%%%%%%%%%%%%%%%%%%%%%%%%%%%%%%kkkkkk",
"kkkkkkk%%%%%%%%%%%%%%%%%%%%%%%%%%%%%%%%%%ajjjjjjjjjjjjjjjq%%%%%%%%%%%%ijjjjjjjjjjjjjjjq%%%%%%%%%%%%%%%%%%%%%%%%%%%%%%%%%%kkkkkkk",
"kkkkkkk%%%%%%%%%%%%%%%%%%%%%%%%%%%%%%%%%%rjjjjjjjjjjjjjjj2%%%%%%%%%%%%rjjjjjjjjjjjjjjj2%%%%%%%%%%%%%%%%%%%%%%%%%%%%%%%%%%kkkkkkk",
"kkkkkkkk%%%%%%%%%%%%%%%%%%%%%%%%%%%%%%%%%8jjjjjjjjjjjjjjj>%%%%%%%%%%%%8jjjjjjjjjjjjjjj%%%%%%%%%%%%%%%%%%%%%%%%%%%%%%%%%%kkkkkkkk",
"kkkkkkkk%%%%%%%%%%%%%%%%%%%%%%%%%%%%%%%%%,jjjjjjjjjjjjjjh%%%%%%%%%%%%%1jjjjjjjjjjjjjjs%%%%%%%%%%%%%%%%%%%%%%%%%%%%%%%%%okkkkkkkk",
"kkkkkkkkk%%%%%%%%%%%%%%%%%%%%%%%%%%%%%%%%%hjjjjjjjjjjjjjaoo%%%%%%%%%%%:jjjjjjjjjjjjjji%%%%%%%%%%%%%%%%%%%%%%%%%%%%%%%%%kkkkkkkkk",
"kkkkkkkkkk%%%%%%%%%%%%%%%%%%%%%%%%%%%%%%%%ajjjjjjjjjjjjji.%%%%%%%%%%%%%hjjjjjjjjjjjjjq%%%%%%%%%%%%%%%%%%%%%%%%%%%%%%%%kkkkkkkkkk",
"kkkkkkkkkk%%%%%%%%%%%%%%%%%%%%%%%%%%%%%%%%rjjjjjjjjjjjjjwo%%%%%%%%%%%%%djjjjjjjjjjjjj2%%%%%%%%%%%%%%%%%%%%%%%%%%%%%%%%kkkkkkkkkk",
"kkkkkkkkkkk%%%%%%%%%%%%%%%%%%%%%%%%%%%%%%%8jjjjjjjjjjjjj7%%%%%%%%%%%%%%yjjjjjjjjjjjjj:%%%%%%%%%%%%%%%%%%%%%%%%%%%%%%%kkkkkkkkkkk",
"kkkkkkkkkkk%%%%%%%%%%%%%%%%%%%%%%%%%%%%%%%,jjjjjjjjjjjjj1o%%%%%%%%%%%%%qjjjjjjjjjjjjso%%%%%%%%%%%%%%%%%%%%%%%%%%%%%%$kkkkkkkkkkk",
"kkkkkkkkkkkk%%%%%%%%%%%%%%%%%%%%%%%%%%%%%%%hjjjjjjjjjjjj%%%%%%%%%%%%%%%7jjjjjjjjjjjji%%%%%%%%%%%%%%%%%%%%%%%%%%%%%%%kkkkkkkkkkkk",
"kkkkkkkkkkkkk%%%%%%%%%%%%%%%%%%%%%%%%%%%%%%7800099009997%%%%%%%%%%%%%%.:798080008888>%%%%%%%%%%%%%%%%%%%%%%%%%%%%%%kkkkkkkkkkkkk",
"kkkkkkkkkkkkkk%%%%%%%%%%%%%%%%%%%%%%%%%%%%%%%%.oo.O.o.o.%%%%%%%%%%%%O.oo;.o.o;.%%%%o%%%%%%%%%%%%%%%%%%%%%%%%%%%%%%kkkkkkkkkkkkkk",
"kkkkkkkkkkkkkk%%%%%%%%%%%%%%%%%%%%%%%%%%%%%%%%%%.%%%%%%%%%%%%%%%%%%%%%%%%%%%%%%%%%%%%%%%%%%%%%%%%%%%%%%%%%%%%%%%%kkkkkkkkkkkkkkk",
"kkkkkkkkkkkkkkk%%%%%%%%%%%%%%%%%%%%%%%%%%%%%%%%%o%%%%%%%%%%%%%%%%%%%%%%%%%%%%%%%%%%%%%%%%%%%%%%%%%%%%%%%%%%%%%%%okkkkkkkkkkkkkkk",
"kkkkkkkkkkkkkkkk%%%%%%%%%%%%%%%%%%%%%%%%%%%%%%%%%%%%%%%%%%%%%%%%%%%%%%%%%%%%%%%%%%%%%%%%%%%%%%%%%%%%%%%%%%%%%%%%kkkkkkkkkkkkkkkk",
"kkkkkkkkkkkkkkkkk%%%%%%%%%%%%%%%%%%%%%%%%%%%%%%%%%%%%%%%%%%%%%%%%%%%%%%%%%%%%%%%%%%%%%%%%%%%%%%%%%%%%%%%%%%%%%%kkkkkkkkkkkkkkkkk",
"kkkkkkkkkkkkkkkkkk%%%%%%%%%%%%%%%%%%%%%%%%%%%%%%%%%%%%%%%%%%%%%%%%%%%%%%%%%%%%%%%%%%%%%%%%%%%%%%%%%%%%%%%%%%%%kkkkkkkkkkkkkkkkkk",
"kkkkkkkkkkkkkkkkkkk%%%%%%%%%%%%%%%%%%%%%%%%%%%%%%%%%%%%%%%%%%%%%%%%%%%%%%%%%%%%%%%%%%%%%%%%%%%%%%%%%%%%%%%%%%kkkkkkkkkkkkkkkkkkk",
"kkkkkkkkkkkkkkkkkkkk%%%%%%%%%%%%%%%%%%%%%%%%%%%%%%%%%%%%%%%%%%%%%%%%%%%%%%%%%%%%%%%%%%%%%%%%%%%%%%%%%%%%%%%%kkkkkkkkkkkkkkkkkkkk",
"kkkkkkkkkkkkkkkkkkkkk%%%%%%%%%%%%%%%%%%%%%%%%%%%%%%%%%%%%%%%%%%%%%%%%%%%%%%%%%%%%%%%%%%%%%%%%%%%%%%%%%%%%%%kkkkkkkkkkkkkkkkkkkkk",
"kkkkkkkkkkkkkkkkkkkkkk%%%%%%%%%%%%%%%%%%%%%%%%%%%%%%%%%%%%%%%%%%%%%%%%%%%%%%%%%%%%%%%%%%%%%%%%%%%%%%%%%%%okkkkkkkkkkkkkkkkkkkkkk",
"kkkkkkkkkkkkkkkkkkkkkkkk%%%%%%%%%%%%%%%%%%%%%%%%%%%%%%%%%%%%%%%%%%%%%%%%%%%%%%%%%%%%%%%%%%%%%%%%%%%%%%%%%kkkkkkkkkkkkkkkkkkkkkkk",
"kkkkkkkkkkkkkkkkkkkkkkkkk%%%%%%%%%%%%%%%%%%%%%%%%%%%%%%%%%%%%%%%%%%%%%%%%%%%%%%%%%%%%%%%%%%%%%%%%%%%%%%kkkkkkkkkkkkkkkkkkkkkkkkk",
"kkkkkkkkkkkkkkkkkkkkkkkkkk%%%%%%%%%%%%%%%%%%%%%%%%%%%%%%%%%%%%%%%%%%%%%%%%%%%%%%%%%%%%%%%%%%%%%%%%%%%%kkkkkkkkkkkkkkkkkkkkkkkkkk",
"kkkkkkkkkkkkkkkkkkkkkkkkkkk-%%%%%%%%%%%%%%%%%%%%%%%%%%%%%%%%%%%%%%%%%%%%%%%%%%%%%%%%%%%%%%%%%%%%%%%%%kkkkkkkkkkkkkkkkkkkkkkkkkkk",
"kkkkkkkkkkkkkkkkkkkkkkkkkkkkk%%%%%%%%%%%%%%%%%%%%%%%%%%%%%%%%%%%%%%%%%%%%%%%%%%%%%%%%%%%%%%%%%%%%%%kkkkkkkkkkkkkkkkkkkkkkkkkkkkk",
"kkkkkkkkkkkkkkkkkkkkkkkkkkkkkkk%%%%%%%%%%%%%%%%%%%%%%%%%%%%%%%%%%%%%%%%%%%%%%%%%%%%%%%%%%%%%%%%%%kkkkkkkkkkkkkkkkkkkkkkkkkkkkkkk",
"kkkkkkkkkkkkkkkkkkkkkkkkkkkkkkkk%%%%%%%%%%%%%%%%%%%%%%%%%%%%%%%%%%%%%%%%%%%%%%%%%%%%%%%%%%%%%%%%kkkkkkkkkkkkkkkkkkkkkkkkkkkkkkkk",
"kkkkkkkkkkkkkkkkkkkkkkkkkkkkkkkkkk%%%%%%%%%%%%%%%%%%%%%%%%%%%%%%%%%%%%%%%%%%%%%%%%%%%%%%%%%%%%kkkkkkkkkkkkkkkkkkkkkkkkkkkkkkkkkk",
"kkkkkkkkkkkkkkkkkkkkkkkkkkkkkkkkkkkk%%%%%%%%%%%%%%%%%%%%%%%%%%%%%%%%%%%%%%%%%%%%%%%%%%%%%%%%kkkkkkkkkkkkkkkkkkkkkkkkkkkkkkkkkkkk",
"kkkkkkkkkkkkkkkkkkkkkkkkkkkkkkkkkkkkkk%%%%%%%%%%%%%%%%%%%%%%%%%%%%%%%%%%%%%%%%%%%%%%%%%%%%kkkkkkkkkkkkkkkkkkkkkkkkkkkkkkkkkkkkkk",
"kkkkkkkkkkkkkkkkkkkkkkkkkkkkkkkkkkkkkkkk%%%%%%%%%%%%%%%%%%%%%%%%%%%%%%%%%%%%%%%%%%%%%%%kkkkkkkkkkkkkkkkkkkkkkkkkkkkkkkkkkkkkkkkk",
"kkkkkkkkkkkkkkkkkkkkkkkkkkkkkkkkkkkkkkkkkkk%%%%%%%%%%%%%%%%%%%%%%%%%%%%%%%%%%%%%%%%%%kkkkkkkkkkkkkkkkkkkkkkkkkkkkkkkkkkkkkkkkkkk",
"kkkkkkkkkkkkkkkkkkkkkkkkkkkkkkkkkkkkkkkkkkkkkk%%%%%%%%%%%%%%%%%%%%%%%%%%%%%%%%%%%%kkkkkkkkkkkkkkkkkkkkkkkkkkkkkkkkkkkkkkkkkkkkkk",
"kkkkkkkkkkkkkkkkkkkkkkkkkkkkkkkkkkkkkkkkkkkkkkkkkk%%%%%%%%%%%%%%%%%%%%%%%%%%%%kkkkkkkkkkkkkkkkkkkkkkkkkkkkkkkkkkkkkkkkkkkkkkkkkk",
"kkkkkkkkkkkkkkkkkkkkkkkkkkkkkkkkkkkkkkkkkkkkkkkkkkkkkkkk%%$%$%%%%%%%%%%%kkkkkkkkkkkkkkkkkkkkkkkkkkkkkkkkkkkkkkkkkkkkkkkkkkkkkkkk"
};
