/* XPM */
static char *_614770858479[] = {
/* columns rows colors chars-per-pixel */
"64 64 49 1 ",
"  c #0891CF",
". c #0991CF",
"X c #0791D0",
"o c #0792D0",
"O c #0793D0",
"+ c #0792D1",
"@ c #0890D0",
"# c #0891D0",
"$ c #0991D0",
"% c #0990D1",
"& c #0892D0",
"* c #0992D0",
"= c #0893D0",
"- c #0993D0",
"; c #0992D1",
": c #1899D3",
"> c #279FD5",
", c #279FD6",
"< c #27A0D6",
"1 c #36A6D9",
"2 c #37A6D9",
"3 c #45ADDB",
"4 c #46ADDB",
"5 c #45ADDC",
"6 c #46ADDC",
"7 c #54B4DE",
"8 c #55B4DE",
"9 c #55B4DF",
"0 c #64BAE1",
"q c #64BBE1",
"w c #64BBE2",
"e c #74C1E4",
"r c #83C8E7",
"t c #84C9E8",
"y c #93CFEA",
"u c #A2D5ED",
"i c #A2D6ED",
"p c #B1DDF0",
"a c #B2DDF0",
"s c #C1E3F3",
"d c #C1E4F3",
"f c #D0EAF6",
"g c #D1EAF6",
"h c #D1EBF6",
"j c #E0F1F9",
"k c #E0F2F9",
"l c #EFF8FC",
"z c white",
"x c None",
/* pixels */
"xxxxxxxxxxxxxxxxxxxxxxxxxx&&&&&&&&&--xxxxxxxxxxxxxxxxxxxxxxxxxxx",
"xxxxxxxxxxxxxxxxxxxxxx&&&&&&&&&&&&&&&&&&&&xxxxxxxxxxxxxxxxxxxxxx",
"xxxxxxxxxxxxxxxxxxx.O&&&&&&&&&&&&&&&&&&&&&&&xxxxxxxxxxxxxxxxxxxx",
"xxxxxxxxxxxxxxxxx.O&&&&&&&&&&&&&&&&&&&&&&&&&&OOxxxxxxxxxxxxxxxxx",
"xxxxxxxxxxxxxxxxO&&&&&&&&&&&&&&&&&&&&&&&&&&&&&&&xxxxxxxxxxxxxxxx",
"xxxxxxxxxxxxxx&&&&&&&&&&&&&&&&&&&&&&&&&&&&&&&&&&&&xxxxxxxxxxxxxx",
"xxxxxxxxxxxxxO&&&&&&&&&&&&&&&&&&&&&&&&&&&&&&&&&&&&Oxxxxxxxxxxxxx",
"xxxxxxxxxxx.&&&&&&&&&&&&&&&&&&&&&&&&&&&&&&&&&&&&&&&&&xxxxxxxxxxx",
"xxxxxxxxxx.O&&&&&&&&&&&&&&&&&&&&&&&&&&&&&&&&&&&&&&&&&&xxxxxxxxxx",
"xxxxxxxxx&&&&&&&&&&&&&&&&&&&&&&&&&&&&&&&&&&&&&&&&&&&&&&xxxxxxxxx",
"xxxxxxxx.&&&&&&&&&&&&&&&&&&&&&&&&&&&&&&&&&&&&&&&&&&&&&&&xxxxxxxx",
"xxxxxxx.&&&&&&&&&&&&&&&&&&&&&&&&&&&&&&&&&&&&&&&&&&&&&&&&Oxxxxxxx",
"xxxxxxx&&&&&&&155555,&&&&&&&&155555&&&&&&&&:55555,&&&&&&&xxxxxxx",
"xxxxxxO&&&&&&&hzzzzzy&&&&&&&&zzzzzl&&&&&&&&dzzzzza&&&&&&&Oxxxxxx",
"xxxxx&&&&&&&&&yzzzzza&&&&&&&2zzzzzz,&&&&&&&lzzzzze&&&&&&&&&xxxxx",
"xxxxx&&&&&&&&&qzzzzzk&&&&&&&5zzzzzz7&&&&&&:zzzzzz4&&&&&&&&&xxxxx",
"xxxx&&&&&&&&&&2zzzzzz:&&&&&&ezzzzzzw&&&&&&5zzzzzz:&&&&&&&&&Oxxxx",
"xxx.&&&&&&&&&&:zzzzzz1&&&&&&yzzzzzzy&&&&&&7zzzzzfO&&&&&&&&&&xxxx",
"xxxO&&&&&&&&&&&hzzzzzq&&&&&&dzzzzzzp&&&&&&rzzzzza&&&&&&&&&&&Oxxx",
"xxx&&&&&&&&&&&&izzzzzr&&&&&&kzzzzzzk&&&&&&azzzzze&&&&&&&&&&&&xxx",
"xx&&&&&&&&&&&&&ezzzzziO&&&&:zzzzzzzz:&&&&&hzzzzz4O&&&&&&&&&&&Oxx",
"xx&&&&&&&&&&&&&1zzzzzh&&&&&2zzzzzzzz,&&&&&lzzzzz:O&&&&&&&&&&&&xx",
"x&&&&&&&&&&&&&&:zzzzzl&&&&&7zzzzzzzzq&&&&,zzzzzk&&&&&&&&&&&&&&&x",
"x&&&&&&&&&&&5kkkzzzzzz,&&&&rzzzzzzzze&&&&5zzzzzzkkk,&&&&&&&&&&&x",
"x&&&&&&&&&&&5zzzzzzzzz7&&&&azzzzzzzzi&&&&ezzzzzzzzz,&&&&&&&&&&&x",
"x&&&&&&&&&&&5zzzzzzzzze&&&&szzzzzzzzhO&&&yzzzzzzzzz,&&&&&&&&&&&x",
"x&&&&&&&&&&&5zzzzzzzzzi&&&&lzzzzzzzzl&&&&szzzzzzzzz,&&&&&&&&&&&&",
"&&&&&&&&&&&&:4444zzzzzs&&&:zzzzdlzzzz,&&&hzzzzk7445&&&&&&&&&&&&&",
"&&&&&&&&&&&&&&&&&kzzzzl&&&5zzzzrizzzz5&&&zzzzza&&&&&&&&&&&&&&&&&",
"&&&&&&&&&&&&&&&&&izzzzz:&&ezzzz7rzzzzq&&1zzzzzr&&&&&&&&&&&&&&&&&",
"&&&&&&&&&&&&&&&&&wzzzzz1&&yzzzz1qzzzzy&&7zzzzz5&&&&&&&&&&&&&&&&&",
"&&&&&&&&&&&&<wwwqizzzzzq&&dzzzzrizzzzp&&rzzzzztwqqq:&&&&&&&&&&&&",
"&&&&&&&&&&&&5zzzzzzzzzzy&&hzzzzzzzzzzj&&azzzzzzzzzz,&&&&&&&&&&&&",
"&&&&&&&&&&&&5zzzzzzzzzza&&zzzzzzzzzzzz&&dzzzzzzzzzz,&&&&&&&&&&&&",
"&&&&&&&&&&&&5zzzzzzzzzzk&1zzzzzzzzzzzz,&lzzzzzzzzzz,&&&&&&&&&&&&",
"&&&&&&&&&&&&2sssssjzzzzz&7zzzzksskzzzz7:zzzzzhsssss:&&&&&&&&&&&O",
"&&&&&&&&&&&&&&&&O&7zzzzz,wzzzz4&&qzzzzw7zzzzz,&&&&&&&&&&&&&&&&&O",
"&&&&&&&&&&&&&&&&&&:zzzzz7izzzz:O&1zzzziwzzzzl&&&&&&&&&&&&&&&&&&x",
"x&&&&&&&&&&&&&&&&&&kzzzzedzzzl&&&:zzzzgyzzzzs&&&&&&&&&&&&&&&&&&x",
"x&&&&&&&&&&&&&&&&&&azzzzkzzzzs&&&&kzzzzzzzzzr&&&&&&&&&&&&&&&&&&x",
"x&&&&&&&&&&&&&&&&&&ezzzzzzzzza&&&&dzzzzzzzzz7&&&&&&&&&&&&&&&&&&x",
"x&&&&&&&&&&&&&&&&&&7zzzzzzzzzr&&&&yzzzzzzzzz1&&&&&&&&&&&&&&&&&&x",
"xx&&&&&&&&&&&&&&&&&,zzzzzzzzz7O&&&ezzzzzzzzl&&&&&&&&&&&&&&&&&&xx",
"xx&&&&&&&&&&&&&&&&&&lzzzzzzzz1&&&&7zzzzzzzzs&&&&&&&&&&&&&&&&&&xx",
"xxx&&&&&&&&&&&&&&&&&azzzzzzzz&&&&&<zzzzzzzzy&&&&&&&&&&&&&&&&&xxx",
"xxx&&&&&&&&&&&&&&&&&yzzzzzzzh&&&&&&lzzzzzzz7&&&&&&&&&&&&&&&&Oxxx",
"xxxx&&&&&&&&&&&&&&&&7zzzzzzzaO&&&&&hzzzzzzz1&&&&&&&&&&&&&&&&&xxx",
"xxxx&&&&&&&&&&&&&&&&,zzzzzzzrO&&&&&izzzzzzl&&&&&&&&&&&&&&&&&xxxx",
"xxxxx&&&&&&&&&&&&&&&&lzzzzzz7O&&O-.rzzzzzzs&&&&&&&&&&&&&&&&xxxxx",
"xxxxx&&&&&&&&&&&&&&&&azzzzzz4&&&-  wzzzzzzy&&&&&&&&&&&&&&&&xxxxx",
"xxxxxx&&&&&&&&&&&&&&&yzzzzzz:&&&O&O1zzzzzz7&&&&&&&&&&&&&&&xxxxxx",
"xxxxxxx&&&&&&&&&&&&&&:,,>>,,&&&&&&@.>,<<,,:&&&&&&&&&&&&&&xxxxxxx",
"xxxxxxx&&&&&&&&&&&&&&&&&.@&&&&&&&&&&&&&&.@O.&&&&&&&&&&&&xxxxxxxx",
"xxxxxxxx&&&&&&&&&&&&&&&&O@&&&&&&&&&&&&&&@@&O&&&&&&&&&&&&xxxxxxxx",
"xxxxxxxxx&&&&&&&&&&&&&&&.O&&&&&&&&&&&&&&&&&&&&&&&&&&&&&xxxxxxxxx",
"xxxxxxxxxx&&&&&&&&&&&&&&O.&&&&&&&&&&&&&&&&&&&&&&&&&&&%xxxxxxxxxx",
"xxxxxxxxxxxx&&&&&&&&&&&&&&&&&&&&&&&&&&&&&&&&&&&&&&&&&xxxxxxxxxxx",
"xxxxxxxxxxxxx&&&&&&&&&&&&&&&&&&&&&&&&&&&&&&&&&&&&&&xxxxxxxxxxxxx",
"xxxxxxxxxxxxxx&&&&&&&&&&&&&&&&&&&&&&&&&&&&&&&&&&&&xxxxxxxxxxxxxx",
"xxxxxxxxxxxxxxxx&&&&&&&&&&&&&&&&&&&&&&&&&&&&&&&Oxxxxxxxxxxxxxxxx",
"xxxxxxxxxxxxxxxxx&&&&&&&&&&&&&&&&&&&&&&&&&&&&Oxxxxxxxxxxxxxxxxxx",
"xxxxxxxxxxxxxxxxxxxx&&&&&&&&&&&&&&&&&&&&&&&&xxxxxxxxxxxxxxxxxxxx",
"xxxxxxxxxxxxxxxxxxxxxx&&&&&&&&&&&&&&&&&&&&xxxxxxxxxxxxxxxxxxxxxx",
"xxxxxxxxxxxxxxxxxxxxxxxxxxx&&&&&&&&&&&xxxxxxxxxxxxxxxxxxxxxxxxxx"
};
